<svg xmlns="http://www.w3.org/2000/svg" xmlns:xlink="http://www.w3.org/1999/xlink" xmlns:lucid="lucid" width="423" height="296"><g transform="translate(-502 184)" lucid:page-tab-id="0_0"><path d="M709.45-114.54a6 6 0 0 1 6-6H734a6 6 0 0 1 6 6v8.54a6 6 0 0 1-6 6h-18.55a6 6 0 0 1-6-6z" fill="none"/><use xlink:href="#a" transform="matrix(1,0,0,1,709.4502253621858,-120.53693421380754) translate(-150.42592592592592 170.66666666666669)"/><defs><path fill="#6db1ff" d="M152 0h-7L59-203v189l32 5v9H10v-9l31-5v-208l-31-4v-10h72l76 180 84-180h68v10l-31 4v208l31 5v9h-96v-9l32-5v-189" id="b"/><path d="M199-173c-1 36-21 56-49 65l64 94 26 5v9h-57l-66-103H75v89l35 5v9H13v-9l28-5v-208l-31-4v-10c80 4 190-20 189 63zM75-119c50 2 89-1 89-51 0-49-39-52-89-50v101" id="c"/><g id="a"><use transform="matrix(0.5925925925925927,0,0,0.5925925925925927,0,0)" xlink:href="#b"/><use transform="matrix(0.5925925925925927,0,0,0.5925925925925927,189.62962962962965,0)" xlink:href="#c"/></g></defs></g></svg>